<svg id="Security_lock" xmlns="http://www.w3.org/2000/svg" viewBox="0 0 82 106.5"><title>Freeze</title><path d="M105.13,4.5H80.79c-10.43,0-18.29,7.3-18.29,17V39.25h9V21.48c0-5.51,4.67-8,9.29-8h24.34c4.66,0,9.37,2.47,9.37,8V39.25h9V21.48C123.5,11.8,115.6,4.5,105.13,4.5Z" transform="translate(-51 -4.5)" style="fill:#fff"/><path d="M123,45H51v66h82V45ZM94.2,77.77,94.81,92H88.5l.62-14.29a9.05,9.05,0,0,1-5.86-8.48,8.62,8.62,0,0,1,8.4-8.66,8.29,8.29,0,0,1,8.39,8.27C100.05,72.59,97.58,76.69,94.2,77.77Z" transform="translate(-51 -4.5)" style="fill:#fff"/></svg>