<svg xmlns="http://www.w3.org/2000/svg" viewBox="0 0 92.23 101.25"><title>icon_agenda_KO</title><g id="Layer_2" data-name="Layer 2"><polygon points="76.25 101.25 0 101.25 0 13 43.25 13 42.67 16 3 16 3 98.25 73.25 98.25 73.33 50.67 76.25 50.25 76.25 101.25" style="fill:#fff"/><polygon points="62.25 79.5 23.25 79.5 25.25 71.63 64.25 71.63 62.25 79.5" style="fill:#fff"/><polygon points="62.25 61.13 23.25 61.13 25.25 53.25 64.25 53.25 62.25 61.13" style="fill:#fff"/><polygon points="17.88 42.47 10.25 42.53 12.25 34.53 20 34.66 17.88 42.47" style="fill:#fff"/><polygon points="17.88 61.09 10.25 61.16 12.25 53.16 20 53.28 17.88 61.09" style="fill:#fff"/><polygon points="17.88 79.97 10.25 80.03 12.25 72.03 20 72.16 17.88 79.97" style="fill:#fff"/><path d="M126.23,57.25A23.25,23.25,0,1,1,149.48,34,23.28,23.28,0,0,1,126.23,57.25Zm0-43.5A20.25,20.25,0,1,0,146.48,34,20.27,20.27,0,0,0,126.23,13.75Z" transform="translate(-57.25 -10.75)" style="fill:#fff"/><polygon points="81.52 13.83 63.18 35.99 56.44 26.66 59.81 23.3 63.43 28.31 78.18 10.49 81.52 13.83" style="fill:#fff"/><path d="M102.26,45.34H82.5l-2,7.88h27.29A23.29,23.29,0,0,1,102.26,45.34Z" transform="translate(-57.25 -10.75)" style="fill:#fff"/></g></svg>