<svg id="Layer_1" data-name="Layer 1" xmlns="http://www.w3.org/2000/svg" viewBox="0 0 300.29 65.72"><title>Part Info</title><g id="Ebene_2" data-name="Ebene 2"><rect x="1.5" y="1.5" width="62.72" height="62.72" rx="10.76" style="fill:none;stroke:#fff;stroke-miterlimit:10;stroke-width:3px"/></g><g id="Ebene_3" data-name="Ebene 3"><path d="M43.81,33.18h7.78v31H43.81Z" transform="translate(-14.84 -8.63)" style="fill:#fff"/></g><path d="M47.67,18.93a4.75,4.75,0,0,1,3.51,1.48,5.74,5.74,0,0,1,1.48,3.92,4.85,4.85,0,0,1-1.45,3.54,4.69,4.69,0,0,1-3.47,1.47,4.75,4.75,0,0,1-3.54-1.5,5,5,0,0,1-1.46-3.63,5.57,5.57,0,0,1,1.43-3.83A4.76,4.76,0,0,1,47.67,18.93Z" transform="translate(-14.84 -8.63)" style="fill:#fff"/><path d="M106.75,22.51h7.73a44.9,44.9,0,0,1,9,.58,10,10,0,0,1,5.43,3.36,9.68,9.68,0,0,1,2.11,6.4,9.78,9.78,0,0,1-2,6.39,10.11,10.11,0,0,1-5.67,3.39,50.37,50.37,0,0,1-9.86.63h-2.77v18h-3.88Zm3.88,3.8V39.47l6.56.07a17.25,17.25,0,0,0,5.83-.72,5.94,5.94,0,0,0,2.9-2.34A6.53,6.53,0,0,0,127,32.86a6.38,6.38,0,0,0-1.06-3.56A5.84,5.84,0,0,0,123.14,27a16.94,16.94,0,0,0-5.66-.68Z" transform="translate(-14.84 -8.63)" style="fill:#fff"/><path d="M166.71,32.61V61.3h-3.64V56.37a15.78,15.78,0,0,1-5.2,4.24,14.53,14.53,0,0,1-16.72-3,14.79,14.79,0,0,1-4.31-10.75,14.51,14.51,0,0,1,4.35-10.59,14.18,14.18,0,0,1,10.47-4.41,13.56,13.56,0,0,1,6.39,1.5,14.63,14.63,0,0,1,5,4.51V32.61ZM152,35.43a11.16,11.16,0,0,0-9.84,5.77,11.61,11.61,0,0,0,0,11.59,11.2,11.2,0,0,0,4.17,4.3,10.88,10.88,0,0,0,5.62,1.54,11.47,11.47,0,0,0,5.74-1.52A10.73,10.73,0,0,0,161.85,53a11.83,11.83,0,0,0,1.46-5.87A11.39,11.39,0,0,0,160,38.78,10.86,10.86,0,0,0,152,35.43Z" transform="translate(-14.84 -8.63)" style="fill:#fff"/><path d="M173.62,32.61h3.77V36.8A13.33,13.33,0,0,1,181,33.1a7,7,0,0,1,3.9-1.23,6.75,6.75,0,0,1,3.27,1L186.2,36a4.62,4.62,0,0,0-5.51,1,9.51,9.51,0,0,0-2.61,4.71c-.46,1.63-.69,4.94-.69,9.91V61.3h-3.77Z" transform="translate(-14.84 -8.63)" style="fill:#fff"/><path d="M194.48,22h3.69V32.61H204V35.8h-5.85V61.3h-3.69V35.8h-5V32.61h5Z" transform="translate(-14.84 -8.63)" style="fill:#fff"/><path d="M224.56,22.51h3.88V61.3h-3.88Z" transform="translate(-14.84 -8.63)" style="fill:#fff"/><path d="M236.72,32.61h3.69v5.14a15.28,15.28,0,0,1,4.9-4.41,12,12,0,0,1,5.86-1.47,10.15,10.15,0,0,1,5.7,1.64,9.71,9.71,0,0,1,3.68,4.4q1.18,2.78,1.19,8.62V61.3h-3.69V47.61a34.13,34.13,0,0,0-.41-6.62,7.27,7.27,0,0,0-2.47-4.28,7.4,7.4,0,0,0-4.74-1.44,9.1,9.1,0,0,0-6,2.22,10.37,10.37,0,0,0-3.5,5.48,38.52,38.52,0,0,0-.52,7.81V61.3h-3.69Z" transform="translate(-14.84 -8.63)" style="fill:#fff"/><path d="M281.46,21.54v3.61a9.1,9.1,0,0,0-3.48-.87,3.37,3.37,0,0,0-1.79.43,1.9,1.9,0,0,0-.9,1,14.08,14.08,0,0,0-.18,3v3.88h6V35.8h-6l0,25.5h-3.69V35.8h-3.77V32.61h3.77V28.13a12.14,12.14,0,0,1,.57-4.41,4.5,4.5,0,0,1,1.92-2.12,6.4,6.4,0,0,1,3.28-.8A15.31,15.31,0,0,1,281.46,21.54Z" transform="translate(-14.84 -8.63)" style="fill:#fff"/><path d="M300.18,31.87a14.22,14.22,0,0,1,11,4.8A15.42,15.42,0,0,1,311,57.54a15.16,15.16,0,0,1-21.56,0,15.38,15.38,0,0,1-.22-20.84A14.17,14.17,0,0,1,300.18,31.87Zm0,3.61a10.64,10.64,0,0,0-7.91,3.41A11.32,11.32,0,0,0,289,47.11a11.59,11.59,0,0,0,1.51,5.8,10.55,10.55,0,0,0,4.07,4.15,11.54,11.54,0,0,0,11.27,0,10.58,10.58,0,0,0,4.08-4.15,11.7,11.7,0,0,0,1.51-5.8,11.33,11.33,0,0,0-3.32-8.22A10.68,10.68,0,0,0,300.17,35.48Z" transform="translate(-14.84 -8.63)" style="fill:#fff"/></svg>