<svg id="Layer_1" data-name="Layer 1" xmlns="http://www.w3.org/2000/svg" viewBox="0 0 214.87 83.6"><title>ptc-master-KO_GR</title><polygon points="36.23 0 0 20.93 0 39.42 36.23 18.35 56.6 30.04 52.54 32.4 36.23 23.01 22.03 31.22 54.47 50 72.45 39.48 72.45 20.93 36.23 0" style="fill:#fff"/><polygon points="36.23 83.6 72.45 62.72 72.45 44.18 36.23 65.25 15.85 53.56 19.91 51.2 36.23 60.59 50.42 52.38 17.98 33.6 0 44.12 0 62.72 36.23 83.6" style="fill:#6ebe4c"/><path d="M461.29,265.72q4.89-7.17,14.59-7.17a18.26,18.26,0,0,1,14.27,6.11,23.1,23.1,0,0,1,0,29.83q-5.47,6.11-14.68,6.11t-14.18-7.25v22.74h-6.11V259.2h6.11Zm13.78-1.63a12.9,12.9,0,0,0-10.43,4.56,18.1,18.1,0,0,0,0,21.85,12.9,12.9,0,0,0,10.43,4.56,13.53,13.53,0,0,0,10.59-4.56,17.5,17.5,0,0,0,0-21.85A13.53,13.53,0,0,0,475.07,264.09Z" transform="translate(-352.61 -238.2)" style="fill:#fff"/><path d="M508.32,300V264.58H500V259.2h8.31V244.61h6.11V259.2h9.37v5.38h-9.37V300Z" transform="translate(-352.61 -238.2)" style="fill:#fff"/><path d="M549.56,295.06a11.43,11.43,0,0,0,6.93-2.2,12.75,12.75,0,0,0,4.4-5.71h6.6a18.51,18.51,0,0,1-6.85,9.7,20.62,20.62,0,0,1-12.38,3.75,18.93,18.93,0,0,1-14.59-6.11,23.1,23.1,0,0,1,0-29.83,18.93,18.93,0,0,1,14.59-6.11,20.62,20.62,0,0,1,12.38,3.75,18.55,18.55,0,0,1,6.85,9.7h-6.6a12.75,12.75,0,0,0-4.4-5.71,11.43,11.43,0,0,0-6.93-2.2,16.27,16.27,0,0,0-6.64,1.22,13.45,13.45,0,0,0-4.61,3.34,17,17,0,0,0,0,21.85Q542.39,295.06,549.56,295.06Z" transform="translate(-352.61 -238.2)" style="fill:#fff"/></svg>