<svg xmlns="http://www.w3.org/2000/svg" viewBox="0 0 399.02 83.21"><title>thingworx-KO-GR</title><g id="Layer_2" data-name="Layer 2"><path d="M167.37,97.62V69.41h-6.63V65.12h6.63V53.49h4.88V65.12h7.47v4.29h-7.47V97.62Z" transform="translate(-58.18 -31.9)" style="fill:#fff"/><path d="M189.43,52.12V70.19a16.39,16.39,0,0,1,4.29-4,10.47,10.47,0,0,1,5.79-1.63,15.34,15.34,0,0,1,5.59.91,11.4,11.4,0,0,1,4.09,2.73,14,14,0,0,1,4,10.47V97.62h-4.87V78.84a9.94,9.94,0,0,0-2.54-7.15A8.63,8.63,0,0,0,199.25,69a9.72,9.72,0,0,0-7,2.73,9.59,9.59,0,0,0-2.86,7.15V97.62h-4.87V52.12Z" transform="translate(-58.18 -31.9)" style="fill:#fff"/><path d="M221,65.12h4.88v32.5H221Z" transform="translate(-58.18 -31.9)" style="fill:#fff"/><path d="M238.89,65.12v5.07a16.24,16.24,0,0,1,4.29-4A10.41,10.41,0,0,1,249,64.6a15.34,15.34,0,0,1,5.59.91,11.44,11.44,0,0,1,4.1,2.73,14,14,0,0,1,4,10.47V97.62H257.8V78.84a9.93,9.93,0,0,0-2.53-7.15A8.65,8.65,0,0,0,248.7,69a9.68,9.68,0,0,0-6.95,2.73,9.55,9.55,0,0,0-2.86,7.15V97.62H234V65.12Z" transform="translate(-58.18 -31.9)" style="fill:#fff"/><path d="M296,70.32v-5.2h4.88V96.65q0,7-4,10.69T286.11,111q-6.75,0-10.56-2.6a12.9,12.9,0,0,1-5.17-6.89h5.4q2.09,5.07,9.49,5.07,5.66,0,8.19-2.6T296,96.32V91.84q-4,5.77-11.63,5.78a14.82,14.82,0,0,1-11.44-4.81,16.66,16.66,0,0,1-4.29-11.7,16.66,16.66,0,0,1,4.29-11.7q4.43-4.81,11.8-4.81A12.81,12.81,0,0,1,296,70.32ZM285,93.2a11.3,11.3,0,0,0,4.74-.94,11,11,0,0,0,3.58-2.57,12.63,12.63,0,0,0,2.92-8.58,12.63,12.63,0,0,0-2.92-8.58A10.71,10.71,0,0,0,285,69a10.85,10.85,0,0,0-8.45,3.51,13.56,13.56,0,0,0,0,17.16A10.85,10.85,0,0,0,285,93.2Z" transform="translate(-58.18 -31.9)" style="fill:#fff"/><path d="M329.42,71.69,321.3,97.62h-5.59L305.5,65.12h5.2l7.8,26.46,8.26-26.46h5.33l8.25,26.46,7.8-26.46h5.2l-10.2,32.5h-5.59Z" transform="translate(-58.18 -31.9)" style="fill:#fff"/><path d="M371.19,64.6A15.44,15.44,0,0,1,383,69.48a16.91,16.91,0,0,1,4.29,11.89A16.93,16.93,0,0,1,383,93.27a16.8,16.8,0,0,1-23.66,0,16.93,16.93,0,0,1-4.29-11.9,16.91,16.91,0,0,1,4.29-11.89A15.44,15.44,0,0,1,371.19,64.6Zm0,29.12a10.28,10.28,0,0,0,8.32-3.64,13,13,0,0,0,2.93-8.71,13,13,0,0,0-2.93-8.71,11.33,11.33,0,0,0-16.64,0A13,13,0,0,0,360,81.37a13,13,0,0,0,2.92,8.71A10.28,10.28,0,0,0,371.19,93.72Z" transform="translate(-58.18 -31.9)" style="fill:#fff"/><path d="M410.7,64.6v4.88h-.59a10.4,10.4,0,0,0-8.58,4.22,15.25,15.25,0,0,0-3.12,9.62v14.3h-4.87V65.12h4.87v8a12.32,12.32,0,0,1,12-8.52Z" transform="translate(-58.18 -31.9)" style="fill:#fff"/><path d="M431.51,80.85l12.61,16.77h-6.24l-9.16-13.26-9.23,13.26h-6.18l12.55-16.77L414.09,65.12h6.24l8.39,12.29L437,65.12h6.24Z" transform="translate(-58.18 -31.9)" style="fill:#fff"/><path d="M452,65.78a4.9,4.9,0,0,1,2,.41,5.1,5.1,0,0,1,1.65,1.11A5.24,5.24,0,0,1,456.79,69a5.11,5.11,0,0,1,.41,2,5,5,0,0,1-.41,2,5.24,5.24,0,0,1-1.12,1.65A5.19,5.19,0,0,1,450,75.75a5.28,5.28,0,0,1-1.64-1.11A5.41,5.41,0,0,1,447.22,73a5,5,0,0,1-.41-2,5.11,5.11,0,0,1,.41-2,5.41,5.41,0,0,1,1.12-1.65A5.28,5.28,0,0,1,450,66.19,4.9,4.9,0,0,1,452,65.78Zm0,9.64a4.3,4.3,0,0,0,3.15-1.31,4.46,4.46,0,0,0,1-1.41,4.45,4.45,0,0,0,0-3.46,4.62,4.62,0,0,0-1-1.42,4.29,4.29,0,0,0-3.15-1.3,4.22,4.22,0,0,0-3.14,1.3,4.33,4.33,0,0,0-1.3,3.16,4.2,4.2,0,0,0,.35,1.72,4.44,4.44,0,0,0,.95,1.41A4.23,4.23,0,0,0,452,75.42Zm2.56-5.63a1.49,1.49,0,0,1-.3.92,1.63,1.63,0,0,1-.84.57,1.5,1.5,0,0,1,1,1.36,3.37,3.37,0,0,1,0,.52v.71h-1v-.58a2.31,2.31,0,0,0-.14-.93,1,1,0,0,0-1-.61H450.8v2.12h-1.06V68.08h2.46a2.82,2.82,0,0,1,1.79.47A1.53,1.53,0,0,1,454.56,69.79Zm-2.44,1a1.93,1.93,0,0,0,1-.24.77.77,0,0,0,.37-.69.86.86,0,0,0-.3-.69,1.86,1.86,0,0,0-1.12-.25H450.8v1.87Z" transform="translate(-58.18 -31.9)" style="fill:#fff"/><circle cx="165.25" cy="24.57" r="3.19" style="fill:#fff"/><polygon points="41.56 41.6 72.06 59.2 72.06 24 41.56 41.6" style="fill:#6ebe4c"/><polygon points="36.01 38.4 69.28 19.2 36.03 0 2.75 19.21 36.01 38.4" style="fill:#fff"/><polygon points="30.45 41.6 0 24.03 0 59.18 30.45 41.6" style="fill:#6ebe4c"/><polygon points="36.01 44.81 2.76 64 36.03 83.21 69.29 64.01 36.01 44.81" style="fill:#fff"/></g></svg>