<svg id="Security_lock" xmlns="http://www.w3.org/2000/svg" viewBox="0 0 122.1 106.5"><title>Unfreeze</title><path d="M53.52,4.5H29.19c-10.43,0-18.29,7.3-18.29,17V39.25h9V21.48c0-5.51,4.66-8,9.29-8H53.52c4.67,0,9.38,2.47,9.38,8V39.25h9V21.48C71.9,11.8,64,4.5,53.52,4.5Z" transform="translate(-10.9 -4.5)" style="fill:#fff"/><path d="M123,45H51v66h82V45ZM94.2,77.77,94.81,92H88.5l.62-14.29a9.05,9.05,0,0,1-5.86-8.48,8.62,8.62,0,0,1,8.4-8.66,8.29,8.29,0,0,1,8.39,8.27C100.05,72.59,97.58,76.69,94.2,77.77Z" transform="translate(-10.9 -4.5)" style="fill:#fff"/></svg>