<svg id="Layer_1" data-name="Layer 1" xmlns="http://www.w3.org/2000/svg" viewBox="0 0 307.12 83.1"><title>vuforia-KO-Gr</title><polygon points="36.08 59.21 66.67 41.55 35.99 23.89 5.44 41.55 36.08 59.21" style="fill:#6ebe4c"/><polygon points="35.98 17.51 72.02 38.26 72.02 20.9 35.81 0 0 20.92 0.01 38.31 35.98 17.51" style="fill:#fff"/><polygon points="36.08 65.59 0 44.79 0.01 62.2 36.22 83.1 72.02 62.18 72.02 44.85 36.08 65.59" style="fill:#fff"/><path d="M187,62.2,174.34,94.7h-5.72L155.88,62.2h5.33l10.27,27.3,10.2-27.3Z" transform="translate(-53.1 -31.24)" style="fill:#fff"/><path d="M214.38,94.7V89.63a16.44,16.44,0,0,1-4.29,4,10.52,10.52,0,0,1-5.79,1.62,15.37,15.37,0,0,1-5.59-.91,11.4,11.4,0,0,1-4.09-2.73,14,14,0,0,1-4-10.46V62.2h4.87V81A10,10,0,0,0,198,88.14a8.67,8.67,0,0,0,6.56,2.66,9.72,9.72,0,0,0,7-2.73,9.59,9.59,0,0,0,2.86-7.15V62.2h4.87V94.7Z" transform="translate(-53.1 -31.24)" style="fill:#fff"/><path d="M239.4,53.3a7.61,7.61,0,0,0-5.16,1.52q-1.73,1.53-1.73,4.91V62.2h7.54v4.29h-7.54V94.7h-4.87V59.34c0-3.55,1.06-6.22,3.18-8s5.07-2.67,8.84-2.67h.39V53.3Z" transform="translate(-53.1 -31.24)" style="fill:#fff"/><path d="M258.84,61.68a15.46,15.46,0,0,1,11.83,4.88A16.91,16.91,0,0,1,275,78.45a16.93,16.93,0,0,1-4.29,11.9,16.8,16.8,0,0,1-23.66,0,16.93,16.93,0,0,1-4.29-11.9A16.91,16.91,0,0,1,247,66.56,15.43,15.43,0,0,1,258.84,61.68Zm0,29.12a10.28,10.28,0,0,0,8.32-3.64,13,13,0,0,0,2.92-8.71,13,13,0,0,0-2.92-8.71,11.33,11.33,0,0,0-16.64,0,13,13,0,0,0-2.93,8.71,13,13,0,0,0,2.93,8.71A10.27,10.27,0,0,0,258.84,90.8Z" transform="translate(-53.1 -31.24)" style="fill:#fff"/><path d="M297.9,61.68v4.88h-.58a10.4,10.4,0,0,0-8.58,4.22,15.25,15.25,0,0,0-3.12,9.62V94.7h-4.88V62.2h4.88v8a12.32,12.32,0,0,1,12-8.52Z" transform="translate(-53.1 -31.24)" style="fill:#fff"/><path d="M304.92,50.24a3.29,3.29,0,0,1,2.41,1,3.19,3.19,0,0,1,1,2.34,3.38,3.38,0,1,1-6.76,0,3.2,3.2,0,0,1,1-2.34A3.27,3.27,0,0,1,304.92,50.24Zm-2.4,12h4.87V94.7h-4.87Z" transform="translate(-53.1 -31.24)" style="fill:#fff"/><path d="M340.54,89.5q-3.9,5.72-11.63,5.72a14.72,14.72,0,0,1-11.44-4.87,17.24,17.24,0,0,1-4.29-11.9,17.2,17.2,0,0,1,4.29-11.89,15.09,15.09,0,0,1,11.76-4.88,12.89,12.89,0,0,1,11.31,5.79V62.2h4.88V94.7h-4.88Zm-11,1.3a10.28,10.28,0,0,0,8.32-3.64,13,13,0,0,0,2.92-8.71,13,13,0,0,0-2.92-8.71,10.28,10.28,0,0,0-8.32-3.64,10.77,10.77,0,0,0-8.45,3.64,12.63,12.63,0,0,0-3.06,8.71,12.63,12.63,0,0,0,3.06,8.71A10.77,10.77,0,0,0,329.56,90.8Z" transform="translate(-53.1 -31.24)" style="fill:#fff"/><path d="M355,62.86a4.93,4.93,0,0,1,2,.41,5.21,5.21,0,0,1,1.65,1.11A5.41,5.41,0,0,1,359.81,66a5.11,5.11,0,0,1,.4,2,5,5,0,0,1-.4,2,5.41,5.41,0,0,1-1.12,1.65A5.21,5.21,0,0,1,357,72.83a5.18,5.18,0,0,1-4,0,5.17,5.17,0,0,1-1.64-1.11,5.24,5.24,0,0,1-1.12-1.65,5.05,5.05,0,0,1-.41-2,5.11,5.11,0,0,1,.41-2,5.24,5.24,0,0,1,1.12-1.65A5.17,5.17,0,0,1,353,63.27,4.9,4.9,0,0,1,355,62.86Zm0,9.64a4.3,4.3,0,0,0,3.15-1.31,4.44,4.44,0,0,0,.95-1.41,4.45,4.45,0,0,0,0-3.46,4.6,4.6,0,0,0-.95-1.42A4.29,4.29,0,0,0,355,63.6a4.2,4.2,0,0,0-3.14,1.3,4.44,4.44,0,0,0-1,4.88,4.46,4.46,0,0,0,1,1.41A4.21,4.21,0,0,0,355,72.5Zm2.56-5.63a1.44,1.44,0,0,1-.31.92,1.6,1.6,0,0,1-.83.57,1.5,1.5,0,0,1,1,1.36,3.37,3.37,0,0,1,0,.52V71h-1v-.58a2.4,2.4,0,0,0-.14-.94,1,1,0,0,0-1-.6h-1.47V71h-1.06V65.16h2.45a2.83,2.83,0,0,1,1.8.47A1.53,1.53,0,0,1,357.58,66.87Zm-2.44,1a1.86,1.86,0,0,0,1-.24.77.77,0,0,0,.38-.69.86.86,0,0,0-.3-.69,1.88,1.88,0,0,0-1.12-.25h-1.29v1.87Z" transform="translate(-53.1 -31.24)" style="fill:#fff"/></svg>