<svg xmlns="http://www.w3.org/2000/svg" viewBox="0 0 360.02 82.99"><title>windchill-KO</title><g id="Layer_2" data-name="Layer 2"><path d="M183.46,74.14l-8.13,25.94h-5.59l-10.2-32.5h5.2L172.54,94l8.25-26.45h5.33L194.38,94l7.8-26.45h5.2l-10.21,32.5h-5.59Z" transform="translate(-56.49 -39.51)" style="fill:#fff"/><path d="M211.69,67.58h4.87v32.5h-4.87Z" transform="translate(-56.49 -39.51)" style="fill:#fff"/><path d="M229.25,67.58v5.07a16.44,16.44,0,0,1,4.29-4,10.52,10.52,0,0,1,5.79-1.62,15.37,15.37,0,0,1,5.59.91A11.4,11.4,0,0,1,249,70.7a14,14,0,0,1,4,10.46v18.92h-4.87V81.29a10,10,0,0,0-2.54-7.15,8.66,8.66,0,0,0-6.56-2.66,9.72,9.72,0,0,0-7,2.73,9.59,9.59,0,0,0-2.86,7.15v18.72h-4.87V67.58Z" transform="translate(-56.49 -39.51)" style="fill:#fff"/><path d="M286,94.88q-3.9,5.72-11.64,5.72A14.74,14.74,0,0,1,263,95.72a17.2,17.2,0,0,1-4.29-11.89A17.24,17.24,0,0,1,263,71.93a15.12,15.12,0,0,1,11.77-4.87A12.92,12.92,0,0,1,286,72.84V54.58h4.87v45.5H286Zm-11,1.3a10.28,10.28,0,0,0,8.32-3.64,13,13,0,0,0,2.93-8.71,13,13,0,0,0-2.93-8.71,10.28,10.28,0,0,0-8.32-3.64,10.79,10.79,0,0,0-8.45,3.64,12.63,12.63,0,0,0-3.05,8.71,12.63,12.63,0,0,0,3.05,8.71A10.79,10.79,0,0,0,275.05,96.18Z" transform="translate(-56.49 -39.51)" style="fill:#fff"/><path d="M314,96.18a9.11,9.11,0,0,0,5.52-1.76A10,10,0,0,0,323,89.87h5.27a14.86,14.86,0,0,1-5.46,7.74,16.5,16.5,0,0,1-9.88,3,15.09,15.09,0,0,1-11.64-4.88,16.91,16.91,0,0,1-4.35-11.89,17,17,0,0,1,4.35-11.9,15.08,15.08,0,0,1,11.64-4.87,16.5,16.5,0,0,1,9.88,3,14.87,14.87,0,0,1,5.46,7.73H323a10.05,10.05,0,0,0-3.51-4.55A9.1,9.1,0,0,0,314,71.48a12.93,12.93,0,0,0-5.3,1A10.64,10.64,0,0,0,305,75.12a13.52,13.52,0,0,0,0,17.42A11.41,11.41,0,0,0,314,96.18Z" transform="translate(-56.49 -39.51)" style="fill:#fff"/><path d="M338.59,54.58V72.65a16.44,16.44,0,0,1,4.29-4,10.52,10.52,0,0,1,5.79-1.62,15.34,15.34,0,0,1,5.59.91,11.4,11.4,0,0,1,4.09,2.73,14,14,0,0,1,4,10.46v18.92h-4.87V81.29A10,10,0,0,0,355,74.14a8.66,8.66,0,0,0-6.56-2.66,9.72,9.72,0,0,0-7,2.73,9.59,9.59,0,0,0-2.86,7.15v18.72h-4.87V54.58Z" transform="translate(-56.49 -39.51)" style="fill:#fff"/><path d="M369.83,67.58h4.87v32.5h-4.87Z" transform="translate(-56.49 -39.51)" style="fill:#fff"/><path d="M387.39,100.08h-4.88V54.58h4.88Z" transform="translate(-56.49 -39.51)" style="fill:#fff"/><path d="M400.06,100.08h-4.88V54.58h4.88Z" transform="translate(-56.49 -39.51)" style="fill:#fff"/><path d="M411.31,54.23a5.11,5.11,0,0,1,2,.41A5.41,5.41,0,0,1,415,55.76a5.21,5.21,0,0,1,1.11,1.65,5.18,5.18,0,0,1,0,4A5.17,5.17,0,0,1,415,63.09a5.24,5.24,0,0,1-1.65,1.12,5.11,5.11,0,0,1-2,.41,5.05,5.05,0,0,1-2-.41,5.24,5.24,0,0,1-1.65-1.12,5.17,5.17,0,0,1-1.11-1.64,5.18,5.18,0,0,1,0-4,5.21,5.21,0,0,1,1.11-1.65,5.41,5.41,0,0,1,1.65-1.12A5.05,5.05,0,0,1,411.31,54.23Zm0,9.64a4.29,4.29,0,0,0,3.16-1.3,4.48,4.48,0,0,0,.95-1.42,4.43,4.43,0,0,0,0-3.45,4.48,4.48,0,0,0-.95-1.42,4.29,4.29,0,0,0-3.16-1.3,4.2,4.2,0,0,0-3.13,1.3,4.43,4.43,0,0,0,0,6.29A4.2,4.2,0,0,0,411.31,63.87Zm2.57-5.62a1.52,1.52,0,0,1-.31.92,1.66,1.66,0,0,1-.83.57,1.5,1.5,0,0,1,1,1.36,3.28,3.28,0,0,1,0,.52v.71h-1.05v-.58a2.41,2.41,0,0,0-.13-.94,1,1,0,0,0-1-.6h-1.47v2.12h-1.06V56.54h2.45a2.77,2.77,0,0,1,1.8.47A1.53,1.53,0,0,1,413.88,58.25Zm-2.44,1a1.78,1.78,0,0,0,1-.25.76.76,0,0,0,.38-.68.86.86,0,0,0-.3-.69,1.9,1.9,0,0,0-1.12-.25h-1.29V59.3Z" transform="translate(-56.49 -39.51)" style="fill:#fff"/><circle cx="157.63" cy="19.42" r="3.19" style="fill:#fff"/><circle cx="315.77" cy="19.42" r="3.19" style="fill:#fff"/><polygon points="50.48 26.75 50.48 8.39 35.94 0 20.05 9.17 50.48 26.75" style="fill:#fff"/><polygon points="55.98 46.73 71.87 37.55 71.87 20.75 55.98 11.57 55.98 46.73" style="fill:#fff"/><polygon points="21.39 56.29 21.39 74.6 35.94 82.99 51.78 73.85 21.39 56.29" style="fill:#fff"/><polygon points="41.41 61.5 57.28 70.67 71.87 62.24 71.87 43.9 41.41 61.5" style="fill:#fff"/><polygon points="30.42 21.51 14.55 12.35 0 20.75 0 39.09 30.42 21.51" style="fill:#fff"/><polygon points="15.89 36.26 0 45.45 0 62.24 15.89 71.42 15.89 36.26" style="fill:#fff"/><polygon points="50.48 49.89 35.94 58.29 21.39 49.89 21.39 33.1 35.94 24.7 50.48 33.1 50.48 49.89" style="fill:#fff"/></g></svg>